<?xml version="1.0" encoding="UTF-8"?>
<svg width="320" height="240" viewBox="0 0 320 240" xmlns="http://www.w3.org/2000/svg">
    <path d="M191.216 95h-7.962v43.732c7.236.245 14.441.603 21.617 1.073V132.1c-4.54-.297-9.09-.55-13.655-.758V95zM254 95h-8.647l-5.7 13.154L234.534 95h-8.517l9.153 23.504-9.991 23.058c2.764.269 5.52.555 8.273.858l5.811-13.407 5.753 14.779c2.999.384 5.988.784 8.972 1.208l.013-.005-10.254-26.332L254 95zm-97.93 43.506l7.978-.001V120.65h10.815v-7.734h-10.815v-10.113h14.293V95H156.07v43.506zm-29.478-35.727h8.312v36.052c2.643-.098 5.29-.18 7.941-.247v-35.805h8.312V95h-24.565v7.779zm-27.184 38.65a666.467 666.467 0 0 1 21.944-1.628v-7.77c-4.695.271-9.376.592-14.044.958v-11.763c3.062-.03 7.095-.123 10.668-.079v-7.77c-2.854-.007-7.442.04-10.668.081V102.84h14.044V95H99.408v46.429zm-15.715-18.134L73.464 95H66v50c2.613-.371 5.23-.727 7.854-1.068v-27.19l9.095 26.074c2.86-.331 5.727-.645 8.598-.94V95h-7.854v28.295zm127.729 17.16c2.623.201 5.243.416 7.86.649V95h-7.86v45.455z" fill="#D1232A" fill-rule="nonzero"/>
</svg>
